#!OML:ASF I:\golf\golf\golf 2\Subject 1\2002-09-07\Subject1.ASF
:FULLY-SPECIFIED
:DEGREES
309
root -6.04886 17.9487 2.49731 -9.20526 77.4988 -29.5592
lowerback 6.96575 -8.87294 -6.34174
upperback 4.4915 -12.0695 4.6631
thorax 3.22417 -6.3464 8.66466
lowerneck -10.9082 13.5131 5.22019
upperneck 16.6529 21.2814 -16.5635
head 9.49926 8.994 -3.6503
rclavicle 1.98785e-014 -1.59028e-015
rhumerus 15.0692 -16.0585 -72.4525
rradius 94.4217
rwrist -22.1836
rhand -63.2869 42.0765
rfingers 7.12502
rthumb -35.275 15.5851
lclavicle 1.98785e-014 -1.59028e-015
lhumerus 87.4567 -55.2612 58.9048
lradius 25.9008
lwrist -7.39234
lhand -16.714 8.41044
lfingers 7.12502
lthumb -170.489 -141.824
rfemur -36.9355 3.99742 17.1551
rtibia 30.9768
rfoot -8.23504 -3.93478
rtoes -8.78363
lfemur -35.2876 22.9304 -11.784
ltibia 33.5762
lfoot -8.16134 4.46419
ltoes -13.6219
310
root -6.04443 17.9491 2.41334 -13.7615 79.4945 -34.1118
lowerback 6.64759 -8.94043 -5.66036
upperback 4.65814 -12.1053 5.20024
thorax 3.56338 -6.37067 8.79481
lowerneck -11.2208 13.0083 5.34415
upperneck 16.9572 20.696 -16.864
head 9.64619 8.67624 -3.8438
rclavicle -2.73528e-013 1.01778e-013
rhumerus 14.2113 -15.5753 -72.6643
rradius 93.504
rwrist -23.5024
rhand -63.4369 42.6536
rfingers 7.12502
rthumb -35.4173 16.196
lclavicle -2.73528e-013 1.01778e-013
lhumerus 86.1061 -55.7851 59.5563
lradius 25.4196
lwrist -6.76651
lhand -17.0278 9.30966
lfingers 7.12502
lthumb -170.791 -140.911
rfemur -36.6697 3.32414 16.7272
rtibia 31.2186
rfoot -8.28602 -5.36255
rtoes -9.54173
lfemur -35.8063 21.9167 -12.3576
ltibia 33.1113
lfoot -8.23135 3.83102
ltoes -13.6797
311
root -6.0382 17.949 2.3318 -21.2638 81.3729 -41.481
lowerback 6.36353 -8.94142 -4.82016
upperback 4.81503 -12.0477 5.66711
thorax 3.8032 -6.33036 8.77912
lowerneck -11.4886 12.3637 5.69319
upperneck 17.4639 19.8745 -17.0162
head 9.82652 8.26714 -4.07015
rclavicle 4.53229e-014 -1.35174e-014
rhumerus 13.002 -15.0463 -72.9456
rradius 92.704
rwrist -24.6569
rhand -63.823 42.9922
rfingers 7.12502
rthumb -35.7832 16.6228
lclavicle 4.53229e-014 -1.35174e-014
lhumerus 84.6082 -56.5854 60.2161
lradius 24.9517
lwrist -6.14386
lhand -17.1215 10.4915
lfingers 7.12502
lthumb -170.882 -139.726
rfemur -36.185 2.89584 16.3616
rtibia 31.4946
rfoot -8.34241 -7.02592
rtoes -10.3431
lfemur -36.074 20.8656 -12.6856
ltibia 32.5754
lfoot -8.34873 2.91286
ltoes -14.4224
312
root -6.03345 17.9479 2.24664 -31.3479 83.2339 -51.3672
lowerback 6.10475 -8.97658 -4.08465
upperback 4.91035 -12.0456 6.06105
thorax 3.98092 -6.31271 8.75104
lowerneck -11.7687 11.6884 5.93416
upperneck 18.0039 19.0204 -17.119
head 9.99574 7.84134 -4.2753
rclavicle -9.22361e-014 2.14687e-014
rhumerus 11.4826 -14.3898 -73.4175
rradius 92.0051
rwrist -25.6126
rhand -64.6291 40.8654
rfingers 7.12502
rthumb -36.5467 14.685
lclavicle -9.22361e-014 2.14687e-014
lhumerus 82.3471 -57.38 61.544
lradius 24.5799
lwrist -5.75346
lhand -16.743 11.4892
lfingers 7.12502
lthumb -170.517 -138.744
rfemur -35.6241 2.33293 15.7368
rtibia 31.8222
rfoot -8.3404 -8.58356
rtoes -10.9336
lfemur -36.1606 19.5697 -13.1698
ltibia 31.9795
lfoot -8.38379 1.88351
ltoes -13.5014
313
root -6.02938 17.9501 2.1609 -47.8399 85.0043 -67.6898
lowerback 5.76741 -9.10857 -3.50937
upperback 4.96128 -12.186 6.4469
thorax 4.21625 -6.37225 8.78476
lowerneck -11.9971 11.0507 6.11017
upperneck 18.3799 18.2423 -17.3939
head 10.1192 7.44709 -4.5231
rclavicle 1.02573e-013 -5.24792e-014
rhumerus 10.0303 -13.656 -74.0295
rradius 91.1164
rwrist -26.6314
rhand -65.4552 37.0666
rfingers 7.12502
rthumb -37.3281 11.0877
lclavicle 1.02573e-013 -5.24792e-014
lhumerus 79.5723 -57.9455 63.3449
lradius 24.104
lwrist -5.60195
lhand -16.463 12.4002
lfingers 7.12502
lthumb -170.247 -137.846
rfemur -35.1137 1.54341 14.8894
rtibia 32.2295
rfoot -8.23792 -9.98523
rtoes -12.0314
lfemur -36.1912 17.9017 -13.7653
ltibia 31.3495
lfoot -8.35132 0.87772
ltoes -13.9911
314
root -6.02445 17.9545 2.08003 -77.8322 86.0182 -97.5243
lowerback 5.29467 -9.26602 -2.88877
upperback 5.00746 -12.3652 6.7773
thorax 4.50453 -6.44555 8.71039
lowerneck -12.254 10.3972 6.2837
upperneck 18.8071 17.4157 -17.5446
head 10.2404 7.03769 -4.7393
rclavicle -1.45113e-013 2.74323e-014
rhumerus 8.57662 -12.8386 -74.7651
rradius 89.9994
rwrist -27.6058
rhand -64.8228 37.961
rfingers 7.12502
rthumb -36.73 11.8273
lclavicle -1.45113e-013 2.74323e-014
lhumerus 77.3822 -58.4907 64.177
lradius 23.5971
lwrist -5.06653
lhand -16.4495 13.4229
lfingers 7.12502
lthumb -170.234 -136.824
rfemur -34.5925 0.829257 14.0062
rtibia 32.7379
rfoot -8.13962 -11.4345
rtoes -14.6993
lfemur -36.2378 16.22 -14.3198
ltibia 30.7159
lfoot -8.294 -0.350238
ltoes -15.1805
315
root -6.01826 17.9548 2.00255 -110.8 85.4561 -130.304
lowerback 4.65906 -9.36676 -1.97291
upperback 5.13037 -12.4684 7.01829
thorax 4.86097 -6.45982 8.35355
lowerneck -12.7265 9.70146 6.43481
upperneck 19.4151 16.4695 -17.3687
head 10.4096 6.57848 -4.85357
rclavicle -6.04305e-014 -1.51076e-014
rhumerus 7.00456 -12.0246 -75.7067
rradius 88.8333
rwrist -28.8647
rhand -64.9876 38.1641
rfingers 7.12502
rthumb -36.886 12.0702
lclavicle -6.04305e-014 -1.51076e-014
lhumerus 75.8322 -59.2011 63.9967
lradius 23.1897
lwrist -3.89917
lhand -16.653 14.5204
lfingers 7.12502
lthumb -170.43 -135.717
rfemur -34.0129 0.384247 13.2584
rtibia 33.3396
rfoot -8.29514 -12.807
rtoes -15.6576
lfemur -36.2534 14.8142 -14.7041
ltibia 30.0967
lfoot -8.14206 -1.88484
ltoes -14.1361
316
root -6.01268 17.9517 1.92541 -131.139 83.997 -150.341
lowerback 4.01079 -9.37344 -1.04426
upperback 5.29562 -12.4591 7.1281
thorax 5.21486 -6.40653 7.85409
lowerneck -13.2791 8.94145 6.61365
upperneck 20.1659 15.3947 -17.0205
head 10.6127 6.07027 -4.93561
rclavicle 5.9536e-014 -3.96575e-014
rhumerus 5.32148 -11.2505 -76.7482
rradius 87.5687
rwrist -30.0791
rhand -65.6503 37.9052
rfingers 7.12502
rthumb -37.5125 11.975
lclavicle 5.9536e-014 -3.96575e-014
lhumerus 73.4776 -60.0143 64.6926
lradius 22.6634
lwrist -3.14897
lhand -16.5764 15.7138
lfingers 7.12502
lthumb -170.356 -134.527
rfemur -33.325 -0.00828412 12.4797
rtibia 34.0189
rfoot -8.52529 -13.9269
rtoes -15.5146
lfemur -36.0887 13.6031 -15.14
ltibia 29.5076
lfoot -8.0747 -3.51328
ltoes -13.9182
317
root -6.00968 17.9509 1.84963 -144.233 82.1383 -163.099
lowerback 3.5018 -9.3102 -0.702402
upperback 5.33357 -12.3774 7.47124
thorax 5.53766 -6.35305 7.95257
lowerneck -13.6207 8.04145 6.59974
upperneck 20.8311 14.2104 -16.8825
head 10.7374 5.50461 -5.08852
rclavicle 3.97569e-014 -2.51463e-014
rhumerus 3.69978 -10.4741 -77.3249
rradius 86.2034
rwrist -31.549
rhand -65.996 36.6789
rfingers 7.12502
rthumb -37.8392 10.8361
lclavicle 3.97569e-014 -2.51463e-014
lhumerus 69.4315 -60.6246 67.7337
lradius 21.9814
lwrist -3.52969
lhand -16.1338 16.9622
lfingers 7.12502
lthumb -169.929 -133.299
rfemur -32.5844 -0.578038 11.5671
rtibia 34.7665
rfoot -8.32494 -14.9419
rtoes -18.3132
lfemur -35.887 12.3562 -15.8026
ltibia 28.9542
lfoot -8.10548 -5.15655
ltoes -15.1523
318
root -6.00678 17.9537 1.77688 -152.482 79.7938 -171.055
lowerback 3.01399 -9.31083 -0.254926
upperback 5.25024 -12.3773 7.83429
thorax 5.71315 -6.33058 8.02711
lowerneck -13.8489 7.11844 6.65623
upperneck 21.4216 12.9855 -16.8303
head 10.8203 4.93158 -5.29341
rclavicle -2.84262e-014 -1.23246e-014
rhumerus 2.04721 -9.70897 -77.9901
rradius 84.8601
rwrist -34.9227
rhand -65.2977 38.1731
rfingers 7.12502
rthumb -37.1792 12.1552
lclavicle -2.84262e-014 -1.23246e-014
lhumerus 64.0343 -60.9222 72.1669
lradius 21.2591
lwrist -4.83074
lhand -15.4004 17.9102
lfingers 7.12502
lthumb -169.221 -132.386
rfemur -31.8207 -1.27095 10.7192
rtibia 35.5565
rfoot -8.20461 -15.9726
rtoes -19.2646
lfemur -35.7399 10.989 -16.4593
ltibia 28.3792
lfoot -7.94876 -6.92286
ltoes -14.7344
319
root -6.00269 17.957 1.7113 -157.074 77.2473 -175.298
lowerback 2.52791 -9.31197 0.302878
upperback 5.15329 -12.377 8.25251
thorax 5.86346 -6.3006 8.10566
lowerneck -14.0532 6.1707 6.63167
upperneck 21.9194 11.7436 -16.8414
head 10.8613 4.34663 -5.50698
rclavicle 6.36111e-015 6.2816e-014
rhumerus 0.459607 -8.46082 -78.6695
rradius 83.0833
rwrist -37.1855
rhand -65.5806 37.7583
rfingers 7.12502
rthumb -37.4467 11.8106
lclavicle 6.36111e-015 6.2816e-014
lhumerus 59.1093 -60.9988 75.8879
lradius 20.5373
lwrist -5.75129
lhand -14.5272 18.7595
lfingers 7.12502
lthumb -168.379 -131.583
rfemur -30.9253 -1.74755 10.0593
rtibia 36.3211
rfoot -8.62153 -17.1445
rtoes -15.5081
lfemur -35.4825 9.76092 -16.9624
ltibia 27.7762
lfoot -7.49166 -8.78605
ltoes -11.7676
320
root -5.9936 17.9636 1.64972 -160.043 74.7447 -177.803
lowerback 2.01847 -9.28612 0.762154
upperback 5.08209 -12.3478 8.72597
thorax 6.0883 -6.26207 8.29499
lowerneck -14.1375 5.2035 6.44649
upperneck 22.3222 10.5132 -16.8942
head 10.8389 3.76202 -5.70125
rclavicle -2.38542e-014 8.42847e-014
rhumerus -0.849745 -7.59537 -79.2477
rradius 80.8806
rwrist -38.7848
rhand -65.5594 32.3437
rfingers 7.12502
rthumb -37.4267 6.39073
lclavicle -2.38542e-014 8.42847e-014
lhumerus 55.6569 -61.2051 77.718
lradius 20.0693
lwrist -5.3863
lhand -13.8756 20.1723
lfingers 7.12502
lthumb -167.751 -130.206
rfemur -29.8395 -1.99062 9.48652
rtibia 37.0007
rfoot -9.05764 -18.3686
rtoes -10.5729
lfemur -35.0063 8.79174 -17.4691
ltibia 27.1546
lfoot -6.88996 -10.6225
ltoes -8.04756
321
root -5.97598 17.9789 1.58435 -161.921 72.2464 -179.164
lowerback 1.37569 -9.24952 1.36576
upperback 4.98651 -12.3149 9.2068
thorax 6.33241 -6.20953 8.39948
lowerneck -14.1841 4.211 6.09806
upperneck 22.8786 9.28285 -16.81
head 10.8501 3.17545 -5.81593
rclavicle -1.46306e-013 5.32743e-014
rhumerus -2.16507 -6.44917 -79.8001
rradius 78.8861
rwrist -41.7901
rhand -65.5949 23.2207
rfingers 7.12502
rthumb -37.4602 -2.72337
lclavicle -1.46306e-013 5.32743e-014
lhumerus 52.5108 -61.4975 78.9823
lradius 19.8447
lwrist -4.83937
lhand -13.2326 22.0821
lfingers 7.12502
lthumb -167.131 -128.335
rfemur -28.643 -2.27408 9.09357
rtibia 37.5995
rfoot -9.05078 -19.4396
rtoes -8.48335
lfemur -34.3183 8.01751 -17.9438
ltibia 26.4105
lfoot -6.93327 -12.417
ltoes -9.0034
322
root -5.95391 17.9958 1.51665 -162.988 69.8635 -179.74
lowerback 0.523451 -9.16068 2.22029
upperback 4.87962 -12.2363 9.64397
thorax 6.61078 -6.11215 8.29806
lowerneck -14.2265 3.18507 5.58324
upperneck 23.5053 8.01041 -16.549
head 10.8706 2.5714 -5.83667
rclavicle -9.54166e-015 3.18055e-015
rhumerus -3.40634 -5.37093 -80.5101
rradius 76.7594
rwrist -44.4737
rhand -66.18 22.8473
rfingers 7.12502
rthumb -38.013 -2.94841
lclavicle -9.54166e-015 3.18055e-015
lhumerus 48.7912 -61.6583 80.8153
lradius 19.6759
lwrist -4.69384
lhand -12.5409 24.5344
lfingers 7.12502
lthumb -166.464 -125.926
rfemur -27.4791 -2.49578 8.85766
rtibia 38.1453
rfoot -9.28942 -20.2526
rtoes -6.1667
lfemur -33.5193 7.37008 -18.2779
ltibia 25.4698
lfoot -7.15182 -14.2164
ltoes -10.925
323
root -5.93082 18.0077 1.45073 -164.424 67.7003 -180.647
lowerback -0.274981 -9.02655 2.78361
upperback 4.75565 -12.1029 10.0546
thorax 6.8928 -6.00324 8.34293
lowerneck -14.1605 2.16256 4.95786
upperneck 24.0155 6.78204 -16.3733
head 10.8456 1.97973 -5.85195
rclavicle -3.26007e-014 -1.90833e-014
rhumerus -4.54005 -4.15738 -81.3211
rradius 74.5126
rwrist -46.9589
rhand -66.1032 22.9065
rfingers 7.12502
rthumb -37.9405 -2.90888
lclavicle -3.26007e-014 -1.90833e-014
lhumerus 44.0351 -61.3031 83.9689
lradius 19.3904
lwrist -5.2851
lhand -11.9034 26.9804
lfingers 7.12502
lthumb -165.85 -123.521
rfemur -26.2719 -2.61286 8.40398
rtibia 38.6536
rfoot -9.66286 -20.971
rtoes -2.71113
lfemur -32.5744 6.894 -18.7978
ltibia 24.37
lfoot -6.13527 -16.233
ltoes -6.61777
